<svg xmlns="http://www.w3.org/2000/svg" viewBox="0 0 320 88" role="img" aria-label="RIFIM — La coupe thoracique"><title>RIFIM — La coupe thoracique</title><g transform="translate(1 4)"><path d="M8 42C8 20 23 14 40 14s32 6 32 28c0 18-14 25-32 25S8 60 8 42Z" fill="none" stroke="#283e56" stroke-width="5"/><path d="M31 24c-8-3-16 5-16 17 0 10 7 14 16 13 5-1 2-9 1-13-2-8 4-15-1-17ZM49 24c8-3 16 5 16 17 0 10-7 14-16 13-5-1-2-9-1-13 2-8-4-15 1-17Z" fill="#283e56"/><rect x="35" y="51" width="10" height="10" rx="3" fill="#c87858"/><circle cx="40" cy="28" r="3" fill="#c87858"/></g><text x="102" y="61" fill="#29313c" font-family="Arial, sans-serif" font-size="57" font-weight="600" letter-spacing="1">RIFIM</text><text x="103" y="81" fill="#29313c" font-family="Arial, sans-serif" font-size="8.5" letter-spacing="1.4">IMAGERIE MÉDICALE</text></svg>